PathFileType	4	(x/y/z)	A01_FAST_T0021.trc
DataRate	CameraRate	NumFrames	NumMarkers	Units	OrigDataRate	OrigDataStartFrame	OrigNumFrames
240	240	6	48	mm	240	252	287
Frame#	Time	TOP_HEAD			R_AC			L_AC			R_ASIS			L_ASIS			R_PSIS			L_PSIS			SACRAL			L_IC			R_IC			L_GT			R_GT			R_LAT_KNEE			R_MED_KNEE			L_MED_KNEE			L_LAT_KNEE			R_TOE			L_TOE			R_1ST_MET			L_1ST_MET			L_5TH_MET			R_5TH_MET			R_LAT_ANK			R_MED_ANK			L_MED_ANK			L_LAT_ANK			L_HEEL_SUP			R_HEEL_SUP			L_HEEL_LAT			R_HEEL_LAT			L_HEEL_MED			R_HEEL_MED			R_LL_PROX_POST			R_LL_PROX_ANT			R_LL_DIST_ANT			R_LL_DIST_POST			R_THIGH_PROX_POST			R_THIGH_PROX_ANT			R_THIGH_DIST_ANT			R_THIGH_DIST_POST			L_PROS_PROX_ANT			L_PROS_PROX_POST			L_PROS_DIST_POST			L_PROS_DIST_ANT			L_THIGH_PROX_ANT			L_THIGH_PROX_POST			L_THIGH_DIST_POST			L_THIGH_DIST_ANT			
		X1	Y1	Z1	X2	Y2	Z2	X3	Y3	Z3	X4	Y4	Z4	X5	Y5	Z5	X6	Y6	Z6	X7	Y7	Z7	X8	Y8	Z8	X9	Y9	Z9	X10	Y10	Z10	X11	Y11	Z11	X12	Y12	Z12	X13	Y13	Z13	X14	Y14	Z14	X15	Y15	Z15	X16	Y16	Z16	X17	Y17	Z17	X18	Y18	Z18	X19	Y19	Z19	X20	Y20	Z20	X21	Y21	Z21	X22	Y22	Z22	X23	Y23	Z23	X24	Y24	Z24	X25	Y25	Z25	X26	Y26	Z26	X27	Y27	Z27	X28	Y28	Z28	X29	Y29	Z29	X30	Y30	Z30	X31	Y31	Z31	X32	Y32	Z32	X33	Y33	Z33	X34	Y34	Z34	X35	Y35	Z35	X36	Y36	Z36	X37	Y37	Z37	X38	Y38	Z38	X39	Y39	Z39	X40	Y40	Z40	X41	Y41	Z41	X42	Y42	Z42	X43	Y43	Z43	X44	Y44	Z44	X45	Y45	Z45	X46	Y46	Z46	X47	Y47	Z47	X48	Y48	Z48	

252	1.0495	961.89	1787.6	309.2	751.35	1579.9	552.55	716.63	1572.3	94.555	731.03	1104.1	534.96	755.6	1046.2	182.73	524.11	1120.8	390.93	542.64	1106.3	263.29	515.67	1085.1	325.07	722.14	1174.4	138.04	706.51	1219.4	539.5	705	965.96	136.48	647.84	1002	567.45	534.92	607.84	490.05	572.17	601.78	360.56	869.08	588.88	358.13	846.05	593.47	199.72	609.66	64.269	386.8	1183.5	178.06	240.57	531.61	53.979	339.33	1117.2	123.96	294.6	1091.3	109.12	167.12	501.23	50.433	472.34	411.84	155.32	442.73	426.39	160.74	341.44	968.08	162.08	280.04	942.77	146.94	213.71	882.91	64.688	251.38	312.56	153.28	382.68	900.68	41.021	220.83	310.49	128.59	417.71	910.54	42.908	284.05	312.79	125.21	357.23	404.59	455.18	477.51	470.09	431.85	499.71	459.44	359.21	479.95	405.96	372.61	466.88	571.99	876.24	537.72	643.82	876.12	549.75	624.58	787.62	536.99	556.28	789.7	524.12	916.2	530.05	210.12	864.5	511.8	198.69	878.54	450.21	204.88	926.61	474.5	215.02	816.46	849.93	182.18	753.53	831.67	152.01	786.98	764.64	168.46	844.75	782.61	194.32
253	1.0537	968.61	1785.8	308.46	757.57	1578.9	552.28	722.52	1571.1	94.453	736.97	1103.1	534.57	762.48	1044.7	182.36	530.41	1119.7	389.95	549.25	1104.9	262.41	522.09	1083.8	324.13	728.67	1173.3	137.66	712.21	1218.1	539.05	711.76	964.35	136.05	653.4	1001.2	567	538.34	607.83	489.71	575.74	601.45	360.3	875.8	587.73	358.56	852.95	591.74	200.1	609.63	64.255	386.81	1198	182.83	242.09	531.74	53.899	339.26	1132.7	127.49	296.12	1107.4	111.95	168.57	501.42	50.52	472.3	412.56	155.96	442.53	427.18	161.27	341.25	982.91	162.61	281.16	957.97	146.97	214.8	899.6	63.525	252.45	313.28	154.31	382.42	917.92	40.136	222	311.1	129.67	417.47	927.63	42.377	285.28	313.37	126.21	357	407.07	455.97	477.11	472.4	432.26	499.41	461.31	359.66	479.68	407.97	373.39	466.59	576.97	876.05	537.27	648.81	875.55	549.41	629.08	787.14	536.65	560.78	789.63	523.77	924.28	529.61	210.68	872.91	510.37	199.22	888.09	449.06	205.48	935.73	474.24	215.69	823.04	848.28	181.8	760.15	829.93	151.58	793.62	762.95	168.23	851.31	781.04	194.19
254	1.0579	975.34	1784.1	307.72	763.83	1577.8	551.99	728.42	1570	94.34	742.92	1102	534.18	769.41	1043.1	181.99	536.73	1118.6	388.95	555.87	1103.4	261.52	528.53	1082.6	323.17	735.19	1172.1	137.28	717.88	1216.7	538.59	718.57	962.71	135.62	658.97	1000.4	566.55	541.85	607.78	489.38	579.4	601.09	360.05	882.57	586.55	359	859.89	590.01	200.49	609.6	64.239	386.83	1212.1	187.45	243.56	531.87	53.821	339.18	1147.7	130.94	297.57	1122.9	114.75	169.95	501.61	50.605	472.25	413.29	156.59	442.33	427.98	161.8	341.07	997.39	163.18	282.26	972.81	147.06	215.87	915.87	62.509	253.51	314.02	155.36	382.16	934.72	39.392	223.15	311.72	130.75	417.24	944.28	41.967	286.5	313.96	127.23	356.76	409.62	456.75	476.7	474.77	432.65	499.12	463.23	360.09	479.41	410.04	374.16	466.3	581.99	875.82	536.81	653.83	874.95	549.08	633.61	786.63	536.32	565.32	789.51	523.4	932.34	529.13	211.25	881.29	508.96	199.75	897.55	447.93	206.08	944.76	473.95	216.36	829.67	846.62	181.42	766.81	828.17	151.16	800.31	761.24	168.04	857.92	779.44	194.08
255	1.062	982.1	1782.3	306.97	770.14	1576.6	551.69	734.34	1568.8	94.215	748.87	1100.9	533.79	776.36	1041.5	181.64	543.06	1117.4	387.94	562.51	1101.9	260.61	534.98	1081.3	322.2	741.71	1170.8	136.9	723.53	1215.4	538.1	725.4	961.04	135.2	664.56	999.61	566.1	545.43	607.69	489.05	583.17	600.68	359.81	889.38	585.34	359.43	866.88	588.29	200.9	609.57	64.223	386.84	1225.7	191.89	244.95	531.99	53.745	339.1	1162.3	134.27	298.96	1138	117.47	171.28	501.8	50.688	472.21	414.04	157.23	442.13	428.8	162.33	340.88	1011.5	163.76	283.32	987.26	147.2	216.91	931.72	61.616	254.55	314.77	156.42	381.91	951.05	38.766	224.28	312.36	131.84	417	960.47	41.655	287.68	314.55	128.25	356.53	412.23	457.52	476.29	477.19	433.02	498.83	465.2	360.51	479.14	412.16	374.92	466.01	587.06	875.55	536.34	658.88	874.32	548.76	638.19	786.08	536	569.92	789.35	523.02	940.36	528.62	211.81	889.63	507.56	200.29	906.92	446.82	206.69	953.72	473.62	217.03	836.35	844.94	181.07	773.52	826.39	150.78	807.05	759.52	167.87	864.58	777.84	193.99
256	1.0662	988.88	1780.4	306.22	776.5	1575.5	551.37	740.3	1567.5	94.075	754.85	1099.8	533.4	783.36	1039.9	181.3	549.41	1116.2	386.91	569.16	1100.3	259.69	541.46	1079.9	321.21	748.24	1169.5	136.51	729.18	1214	537.6	732.28	959.35	134.79	670.16	998.76	565.65	549.09	607.57	488.72	587.03	600.22	359.59	896.26	584.11	359.87	873.91	586.58	201.33	609.54	64.207	386.86	1239	196.13	246.27	532.12	53.671	339.02	1176.4	137.47	300.28	1152.6	120.11	172.54	501.99	50.769	472.17	414.8	157.87	441.94	429.63	162.86	340.7	1025.3	164.33	284.35	1001.3	147.35	217.92	947.11	60.827	255.57	315.54	157.49	381.66	966.91	38.234	225.39	313.01	132.95	416.77	976.18	41.416	288.84	315.17	129.3	356.29	414.92	458.27	475.89	479.69	433.36	498.55	467.22	360.91	478.88	414.34	375.67	465.73	592.17	875.25	535.84	663.97	873.67	548.45	642.82	785.5	535.7	574.58	789.14	522.62	948.36	528.06	212.37	897.94	506.18	200.84	916.2	445.72	207.29	962.59	473.26	217.68	843.1	843.26	180.73	780.29	824.59	150.43	813.85	757.79	167.74	871.31	776.24	193.93
257	1.0704	995.69	1778.6	305.47	782.9	1574.2	551.03	746.29	1566.2	93.916	760.84	1098.7	533.01	790.41	1038.3	180.97	555.79	1114.9	385.86	575.83	1098.7	258.76	547.95	1078.5	320.21	754.78	1168.2	136.12	734.83	1212.6	537.08	739.21	957.63	134.4	675.77	997.88	565.2	552.85	607.4	488.39	591	599.71	359.37	903.2	582.86	360.31	880.98	584.88	201.76	609.5	64.189	386.89	1251.8	200.12	247.5	532.24	53.597	338.95	1190.1	140.48	301.51	1166.7	122.62	173.73	502.18	50.848	472.14	415.59	158.52	441.75	430.49	163.4	340.53	1038.7	164.87	285.35	1015	147.49	218.9	962.04	60.121	256.56	316.33	158.58	381.42	982.26	37.773	226.46	313.69	134.08	416.54	991.39	41.227	289.95	315.8	130.37	356.05	417.69	459.01	475.48	482.24	433.68	498.27	469.29	361.3	478.62	416.58	376.41	465.44	597.33	874.91	535.34	669.1	872.98	548.16	647.49	784.9	535.4	579.29	788.89	522.21	956.33	527.47	212.93	906.21	504.81	201.38	925.38	444.63	207.89	971.38	472.86	218.33	849.91	841.58	180.43	787.11	822.8	150.12	820.71	756.06	167.65	878.11	774.63	193.89
